<svg width="19" height="19" viewBox="0 0 19 19" fill="none" xmlns="http://www.w3.org/2000/svg">
<path d="M12.2434 15.0652C12.4079 15.0688 12.5695 15.0212 12.7056 14.9287C12.8417 14.8363 12.9457 14.7037 13.003 14.5494C13.0603 14.3952 13.0681 14.2269 13.0253 14.068C12.9826 13.9091 12.8914 13.7675 12.7645 13.6628L7.92016 9.5128L12.7645 5.3642C12.8522 5.29965 12.9258 5.2177 12.9805 5.12341C13.0351 5.02912 13.0698 4.92452 13.0821 4.81624C13.0946 4.70794 13.0845 4.59829 13.0525 4.49408C13.0205 4.38988 12.9674 4.29337 12.8964 4.21065C12.8254 4.12793 12.7382 4.06083 12.64 4.01342C12.5418 3.96599 12.435 3.93936 12.3261 3.93516C12.2172 3.93096 12.1086 3.94923 12.0071 3.98894C11.9055 4.02866 11.8133 4.0889 11.7362 4.1659L6.1899 8.91132C6.1028 8.98568 6.03286 9.07789 5.9849 9.18188C5.93694 9.28588 5.91211 9.39905 5.91211 9.5135C5.91211 9.628 5.93694 9.74118 5.9849 9.84517C6.03286 9.94917 6.1028 10.0415 6.1899 10.1158L11.7362 14.8658C11.8763 14.9902 12.056 15.0608 12.2434 15.0652Z" fill="#007BFF"/>
</svg>
