<svg width="34" height="34" viewBox="0 0 34 34" fill="none" xmlns="http://www.w3.org/2000/svg">
<g clip-path="url(#clip0_744_1436)">
<path d="M20.1875 6.375H7.4375C6.851 6.375 6.375 6.851 6.375 7.4375C6.375 8.024 6.851 8.5 7.4375 8.5H20.1875C20.774 8.5 21.25 8.024 21.25 7.4375C21.25 6.851 20.774 6.375 20.1875 6.375Z" fill="white"/>
<path d="M15.9375 10.625H7.4375C6.851 10.625 6.375 11.101 6.375 11.6875C6.375 12.274 6.851 12.75 7.4375 12.75H15.9375C16.524 12.75 17 12.274 17 11.6875C17 11.101 16.524 10.625 15.9375 10.625Z" fill="white"/>
<path d="M23.375 0H4.25C1.90612 0 0 1.90612 0 4.25V25.5C0 25.9123 0.238 26.2884 0.612 26.4626C0.754375 26.5285 0.9095 26.5625 1.0625 26.5625C1.30687 26.5625 1.54912 26.4775 1.7425 26.316L7.82212 21.25H23.375C25.7189 21.25 27.625 19.3439 27.625 17V4.25C27.625 1.90612 25.7189 0 23.375 0ZM25.5 17C25.5 18.1709 24.548 19.125 23.375 19.125H7.4375C7.18888 19.125 6.94875 19.2121 6.7575 19.3715L2.125 23.2326V4.25C2.125 3.07912 3.077 2.125 4.25 2.125H23.375C24.548 2.125 25.5 3.07912 25.5 4.25V17Z" fill="white"/>
<path d="M29.75 8.5C29.1635 8.5 28.6875 8.976 28.6875 9.5625C28.6875 10.149 29.1635 10.625 29.75 10.625C30.923 10.625 31.875 11.5791 31.875 12.75V30.7254L28.288 27.8566C28.101 27.7079 27.8651 27.625 27.625 27.625H12.75C11.577 27.625 10.625 26.6709 10.625 25.5V24.4375C10.625 23.851 10.149 23.375 9.5625 23.375C8.976 23.375 8.5 23.851 8.5 24.4375V25.5C8.5 27.8439 10.4061 29.75 12.75 29.75H27.251L32.2724 33.7684C32.4657 33.9214 32.7016 34 32.9375 34C33.0926 34 33.2499 33.966 33.3986 33.8959C33.7663 33.7174 34 33.3455 34 32.9375V12.75C34 10.4061 32.0939 8.5 29.75 8.5Z" fill="white"/>
</g>
<defs>
<clipPath id="clip0_744_1436">
<rect width="34" height="34" fill="white"/>
</clipPath>
</defs>
</svg>
