<svg width="24" height="24" viewBox="0 0 24 24" fill="none" xmlns="http://www.w3.org/2000/svg">
<g clip-path="url(#clip0_1_18472)">
<path d="M19.0283 2.94444H19.0262H17.055V2.1731C17.055 1.92927 16.9168 1.75699 16.7472 1.65521C16.5833 1.55691 16.381 1.51601 16.1979 1.51601H14.6507C14.1889 0.370784 13.1402 -0.196937 11.9734 -0.198148C10.8052 -0.240506 9.73889 0.446758 9.29041 1.51601H7.76998C7.58663 1.51601 7.38912 1.55703 7.2305 1.65797C7.06452 1.76359 6.94145 1.93697 6.94145 2.1731V2.94444H4.97014V2.94443L4.96801 2.94445C3.57534 2.95931 2.43599 4.05793 2.37053 5.44913L2.37031 5.44912V5.45853V21.8287C2.37031 23.2213 3.62947 24.1999 4.97014 24.1999H19.0262C20.3669 24.1999 21.626 23.2213 21.626 21.8287V5.45858H21.6263L21.6258 5.44918C21.5604 4.05794 20.421 2.95931 19.0283 2.94444ZM15.5122 3.05878V4.94432H8.48417V3.05878H9.85549H9.86765L9.87971 3.05731C10.2394 3.01342 10.5287 2.74093 10.5943 2.3849C10.7442 1.74116 11.3087 1.27897 11.9693 1.25902C12.6226 1.28139 13.1776 1.74464 13.3162 2.38378C13.3851 2.75314 13.6939 3.03012 14.0688 3.05822L14.0763 3.05878H14.0838H15.5122ZM4.97206 4.48727H6.9414V5.74431V5.75371L6.94228 5.76308C6.98235 6.18806 7.34898 6.50642 7.77477 6.48715H16.1927C16.6213 6.50761 16.9952 6.19716 17.0531 5.77125L17.0549 5.75784V5.74431V4.48721H19.0242C19.5752 4.49818 20.0301 4.92005 20.0832 5.46779V21.8287V21.8377C20.0803 22.0744 19.9625 22.2731 19.7697 22.4193C19.5717 22.5693 19.3007 22.6572 19.0262 22.6572H4.97014C4.69565 22.6572 4.42469 22.5693 4.22668 22.4193C4.03138 22.2713 3.91308 22.0693 3.91308 21.8287V5.46785C3.96616 4.92008 4.42111 4.49818 4.97206 4.48727Z" fill="white" stroke="white" stroke-width="0.4"/>
<path d="M7.17685 14.2046L6.54403 13.5483C6.25464 13.2439 5.7748 13.227 5.46467 13.5104L5.46435 13.51L5.4549 13.5199C5.15983 13.8291 5.15983 14.3155 5.4549 14.6246L5.45489 14.6246L5.45645 14.6262L6.62492 15.8232C6.76521 15.9782 6.96639 16.064 7.17545 16.0578C7.37698 16.0545 7.56917 15.9724 7.7109 15.8292L9.93573 13.7185C10.2365 13.4412 10.2565 12.9727 9.98015 12.6709C9.96697 12.6563 9.95336 12.6425 9.93952 12.6296C9.64972 12.3296 9.17305 12.3141 8.86442 12.5962L8.86439 12.5962L8.86135 12.5991L7.17685 14.2046Z" fill="white" stroke="white" stroke-width="0.4"/>
<path d="M17.9978 13.801H11.4269C11.0008 13.801 10.6555 14.1463 10.6555 14.5724C10.6555 14.9984 11.0008 15.3437 11.4269 15.3437H17.9978C18.4238 15.3437 18.7691 14.9984 18.7691 14.5724C18.7691 14.1463 18.4238 13.801 17.9978 13.801Z" fill="white" stroke="white" stroke-width="0.4"/>
<path d="M8.86442 8.0249L8.86439 8.02487L8.86135 8.02776L7.17685 9.63328L6.54403 8.977C6.25466 8.67265 5.77481 8.65565 5.46465 8.9391L5.46433 8.93876L5.4549 8.94864C5.15983 9.25779 5.15983 9.74419 5.4549 10.0533L5.45489 10.0533L5.45645 10.0549L6.62492 11.2519C6.7652 11.4069 6.96639 11.4927 7.17545 11.4865C7.37698 11.4832 7.56917 11.4011 7.7109 11.2579L9.93573 9.1472C10.2365 8.86992 10.2565 8.40141 9.98015 8.09958C9.96696 8.08497 9.95336 8.07125 9.93952 8.05834C9.64972 7.75829 9.17305 7.74285 8.86442 8.0249Z" fill="white" stroke="white" stroke-width="0.4"/>
<path d="M17.9978 9.22969H11.4269C11.0008 9.22969 10.6555 9.57504 10.6555 10.0011C10.6555 10.4271 11.0008 10.7725 11.4269 10.7725H17.9978C18.4238 10.7725 18.7691 10.4271 18.7691 10.0011C18.7691 9.57504 18.4238 9.22969 17.9978 9.22969Z" fill="white" stroke="white" stroke-width="0.4"/>
<path d="M9.98 17.2415C9.96688 17.227 9.95338 17.2134 9.93968 17.2006C9.64987 16.9003 9.1731 16.8849 8.86444 17.167L8.86441 17.1669L8.86135 17.1698L7.17685 18.7753L6.54403 18.1191C6.25464 17.8147 5.7748 17.7978 5.46467 18.0811L5.46435 18.0808L5.4549 18.0907C5.15983 18.3999 5.15983 18.8863 5.4549 19.1954L5.45489 19.1954L5.45645 19.197L6.62492 20.394C6.76521 20.549 6.96639 20.6348 7.17545 20.6286C7.37698 20.6253 7.56917 20.5432 7.7109 20.4L9.93573 18.2893C10.2366 18.0119 10.2565 17.5433 9.98 17.2415ZM9.98 17.2415C9.98015 17.2416 9.98031 17.2418 9.98047 17.242L9.83217 17.3762L9.97951 17.2409C9.97967 17.2411 9.97984 17.2413 9.98 17.2415Z" fill="white" stroke="white" stroke-width="0.4"/>
<path d="M17.9978 18.3718H11.4269C11.0008 18.3718 10.6555 18.7171 10.6555 19.1432C10.6555 19.5692 11.0008 19.9145 11.4269 19.9145H17.9978C18.4238 19.9145 18.7691 19.5692 18.7691 19.1432C18.7691 18.7171 18.4238 18.3718 17.9978 18.3718Z" fill="white" stroke="white" stroke-width="0.4"/>
</g>
<defs>
<clipPath id="clip0_1_18472">
<rect width="24" height="24" fill="white"/>
</clipPath>
</defs>
</svg>
