<svg width="25" height="25" viewBox="0 0 25 25" fill="none" xmlns="http://www.w3.org/2000/svg">
<path d="M1.79261 23.207C1.86517 23.2796 1.95133 23.3372 2.04617 23.3766C2.14102 23.4159 2.24268 23.4361 2.34535 23.4361C2.44801 23.4361 2.54968 23.4159 2.64452 23.3766C2.73936 23.3372 2.82552 23.2796 2.89808 23.207L12.4996 13.6054L22.1051 23.207C22.2517 23.3536 22.4505 23.4359 22.6578 23.4359C22.8652 23.4359 23.064 23.3536 23.2106 23.207C23.3572 23.0604 23.4395 22.8616 23.4395 22.6542C23.4395 22.4469 23.3572 22.2481 23.2106 22.1015L13.6051 12.4999L23.2067 2.89448C23.3533 2.74788 23.4356 2.54906 23.4356 2.34174C23.4356 2.13443 23.3533 1.9356 23.2067 1.78901C23.0601 1.64241 22.8613 1.56006 22.6539 1.56006C22.4466 1.56006 22.2478 1.64241 22.1012 1.78901L12.4996 11.3945L2.89417 1.79291C2.74472 1.66493 2.55247 1.59805 2.35585 1.60564C2.15923 1.61324 1.97271 1.69474 1.83358 1.83388C1.69444 1.97302 1.61293 2.15953 1.60534 2.35615C1.59774 2.55278 1.66462 2.74502 1.79261 2.89448L11.3942 12.4999L1.79261 22.1054C1.6471 22.2518 1.56543 22.4498 1.56543 22.6562C1.56543 22.8626 1.6471 23.0606 1.79261 23.207Z" fill="black"/>
</svg>
