<svg width="40" height="40" viewBox="0 0 40 40" fill="none" xmlns="http://www.w3.org/2000/svg">
<g clip-path="url(#clip0_1_15012)">
<path d="M34.3432 31.0735C33.6654 31.074 33.0026 30.8735 32.4388 30.4973C31.875 30.121 31.4354 29.586 31.1756 28.9599C30.9159 28.3338 30.8477 27.6448 30.9796 26.9799C31.1115 26.315 31.4377 25.7042 31.9168 25.2247C32.396 24.7453 33.0065 24.4187 33.6713 24.2862C34.3361 24.1538 35.0252 24.2215 35.6515 24.4808C36.2778 24.7401 36.8131 25.1793 37.1897 25.7429C37.5664 26.3064 37.7674 26.969 37.7674 27.6469C37.767 28.5551 37.4061 29.4261 36.7641 30.0685C36.1222 30.711 35.2515 31.0724 34.3432 31.0735ZM34.3432 25.4702C33.9126 25.4697 33.4915 25.597 33.1333 25.8358C32.775 26.0747 32.4956 26.4145 32.3305 26.8122C32.1653 27.2099 32.1219 27.6476 32.2056 28.07C32.2893 28.4924 32.4964 28.8805 32.8007 29.1851C33.105 29.4898 33.4929 29.6974 33.9152 29.7815C34.3375 29.8657 34.7752 29.8228 35.1731 29.6581C35.571 29.4934 35.9111 29.2144 36.1504 28.8564C36.3897 28.4984 36.5174 28.0775 36.5174 27.6469C36.5172 27.0701 36.2881 26.517 35.8805 26.1089C35.4729 25.7008 34.92 25.4711 34.3432 25.4702Z" fill="#007BFF"/>
<path d="M16.2855 31.0735C15.6076 31.0742 14.9448 30.8738 14.3808 30.4977C13.8169 30.1215 13.3771 29.5866 13.1173 28.9605C12.8574 28.3344 12.7891 27.6453 12.9209 26.9804C13.0527 26.3155 13.3788 25.7046 13.8579 25.225C14.337 24.7455 14.9476 24.4188 15.6124 24.2863C16.2772 24.1538 16.9664 24.2215 17.5927 24.4807C18.219 24.74 18.7544 25.1792 19.1311 25.7428C19.5077 26.3064 19.7088 26.969 19.7088 27.6469C19.7081 28.5549 19.3474 29.4256 18.7056 30.068C18.0638 30.7104 17.1935 31.072 16.2855 31.0735ZM16.2855 25.4702C15.8548 25.4696 15.4337 25.5967 15.0753 25.8354C14.7169 26.0742 14.4374 26.4139 14.2721 26.8116C14.1069 27.2093 14.0633 27.647 14.1469 28.0695C14.2305 28.4919 14.4375 28.8801 14.7418 29.1848C15.0461 29.4896 15.4339 29.6972 15.8563 29.7815C16.2786 29.8657 16.7164 29.8228 17.1143 29.6582C17.5123 29.4935 17.8524 29.2145 18.0917 28.8565C18.3311 28.4985 18.4588 28.0775 18.4588 27.6469C18.4584 27.0703 18.2294 26.5174 17.822 26.1094C17.4146 25.7014 16.862 25.4715 16.2855 25.4702Z" fill="#007BFF"/>
<path d="M38.8516 28.2718H37.1425C36.9767 28.2718 36.8177 28.2059 36.7005 28.0887C36.5833 27.9715 36.5175 27.8125 36.5175 27.6468C36.5175 27.481 36.5833 27.322 36.7005 27.2048C36.8177 27.0876 36.9767 27.0218 37.1425 27.0218H38.675V23.7076C38.6746 23.2595 38.5598 22.8189 38.3416 22.4276L34.9583 16.3618C34.9294 16.31 34.8872 16.2669 34.8361 16.2368C34.785 16.2068 34.7268 16.191 34.6675 16.1909H30.0566V27.0243H31.545C31.7107 27.0243 31.8697 27.0901 31.9869 27.2073C32.1041 27.3245 32.17 27.4835 32.17 27.6493C32.17 27.815 32.1041 27.974 31.9869 28.0912C31.8697 28.2084 31.7107 28.2743 31.545 28.2743H29.4316C29.2659 28.2743 29.1069 28.2084 28.9897 28.0912C28.8725 27.974 28.8066 27.815 28.8066 27.6493V15.5659C28.8066 15.4002 28.8725 15.2412 28.9897 15.124C29.1069 15.0068 29.2659 14.9409 29.4316 14.9409H34.6675C34.9494 14.9408 35.2263 15.0159 35.4695 15.1586C35.7127 15.3013 35.9134 15.5064 36.0508 15.7526L39.4333 21.8193C39.7549 22.3967 39.9238 23.0466 39.9241 23.7076V27.1993C39.9237 27.4836 39.8106 27.7561 39.6095 27.9571C39.4085 28.1582 39.1359 28.2713 38.8516 28.2718Z" fill="#007BFF"/>
<path d="M13.4866 28.2715H7.49414C7.32838 28.2715 7.16941 28.2057 7.0522 28.0885C6.93499 27.9712 6.86914 27.8123 6.86914 27.6465V22.8398C6.86914 22.6741 6.93499 22.5151 7.0522 22.3979C7.16941 22.2807 7.32838 22.2148 7.49414 22.2148C7.6599 22.2148 7.81887 22.2807 7.93608 22.3979C8.05329 22.5151 8.11914 22.6741 8.11914 22.8398V27.0215H13.4866C13.6524 27.0215 13.8114 27.0874 13.9286 27.2046C14.0458 27.3218 14.1116 27.4807 14.1116 27.6465C14.1116 27.8123 14.0458 27.9712 13.9286 28.0885C13.8114 28.2057 13.6524 28.2715 13.4866 28.2715Z" fill="#007BFF"/>
<path d="M7.49414 20.6224C7.32838 20.6224 7.16941 20.5566 7.0522 20.4394C6.93499 20.3222 6.86914 20.1632 6.86914 19.9974V15.8008C6.86914 15.635 6.93499 15.476 7.0522 15.3588C7.16941 15.2416 7.32838 15.1758 7.49414 15.1758C7.6599 15.1758 7.81887 15.2416 7.93608 15.3588C8.05329 15.476 8.11914 15.635 8.11914 15.8008V19.9999C8.11848 20.1653 8.05234 20.3236 7.9352 20.4403C7.81806 20.5569 7.65947 20.6224 7.49414 20.6224Z" fill="#007BFF"/>
<path d="M29.4316 28.2717H19.0841C18.9184 28.2717 18.7594 28.2059 18.6422 28.0887C18.525 27.9715 18.4591 27.8125 18.4591 27.6467C18.4591 27.481 18.525 27.322 18.6422 27.2048C18.7594 27.0876 18.9184 27.0217 19.0841 27.0217H28.8066V10.6709H8.11914V13.2451C8.11914 13.4108 8.05329 13.5698 7.93608 13.687C7.81887 13.8042 7.6599 13.8701 7.49414 13.8701C7.32838 13.8701 7.16941 13.8042 7.0522 13.687C6.93499 13.5698 6.86914 13.4108 6.86914 13.2451V10.5559C6.86958 10.2549 6.98942 9.96631 7.20236 9.75352C7.4153 9.54074 7.70394 9.42112 8.00497 9.4209H28.9216C29.2225 9.42134 29.511 9.54106 29.7237 9.75382C29.9365 9.96658 30.0562 10.255 30.0566 10.5559V27.6467C30.0566 27.8125 29.9908 27.9715 29.8736 28.0887C29.7564 28.2059 29.5974 28.2717 29.4316 28.2717Z" fill="#007BFF"/>
<path d="M9.96375 23.4648H2.03125C1.86549 23.4648 1.70652 23.399 1.58931 23.2818C1.4721 23.1646 1.40625 23.0056 1.40625 22.8398C1.40625 22.6741 1.4721 22.5151 1.58931 22.3979C1.70652 22.2807 1.86549 22.2148 2.03125 22.2148H9.96375C10.1295 22.2148 10.2885 22.2807 10.4057 22.3979C10.5229 22.5151 10.5887 22.6741 10.5887 22.8398C10.5887 23.0056 10.5229 23.1646 10.4057 23.2818C10.2885 23.399 10.1295 23.4648 9.96375 23.4648Z" fill="#007BFF"/>
<path d="M16.286 20.6226H5.2168C5.05104 20.6226 4.89207 20.5567 4.77486 20.4395C4.65765 20.3223 4.5918 20.1633 4.5918 19.9976C4.5918 19.8318 4.65765 19.6728 4.77486 19.5556C4.89207 19.4384 5.05104 19.3726 5.2168 19.3726H16.286C16.4517 19.3726 16.6107 19.4384 16.7279 19.5556C16.8451 19.6728 16.911 19.8318 16.911 19.9976C16.911 20.1633 16.8451 20.3223 16.7279 20.4395C16.6107 20.5567 16.4517 20.6226 16.286 20.6226Z" fill="#007BFF"/>
<path d="M4.87133 17.3223H0.548828C0.383068 17.3223 0.224097 17.2564 0.106886 17.1392C-0.0103239 17.022 -0.0761719 16.863 -0.0761719 16.6973C-0.0761719 16.5315 -0.0103239 16.3725 0.106886 16.2553C0.224097 16.1381 0.383068 16.0723 0.548828 16.0723H4.87133C5.03709 16.0723 5.19606 16.1381 5.31327 16.2553C5.43048 16.3725 5.49633 16.5315 5.49633 16.6973C5.49633 16.863 5.43048 17.022 5.31327 17.1392C5.19606 17.2564 5.03709 17.3223 4.87133 17.3223Z" fill="#007BFF"/>
<path d="M11.8019 13.8701H4.17188C4.00611 13.8701 3.84714 13.8043 3.72993 13.6871C3.61272 13.5698 3.54688 13.4109 3.54688 13.2451C3.54688 13.0794 3.61272 12.9204 3.72993 12.8032C3.84714 12.686 4.00611 12.6201 4.17188 12.6201H11.8019C11.9676 12.6201 12.1266 12.686 12.2438 12.8032C12.361 12.9204 12.4269 13.0794 12.4269 13.2451C12.4269 13.4109 12.361 13.5698 12.2438 13.6871C12.1266 13.8043 11.9676 13.8701 11.8019 13.8701Z" fill="#007BFF"/>
</g>
<defs>
<clipPath id="clip0_1_15012">
<rect width="40" height="40" fill="white"/>
</clipPath>
</defs>
</svg>
