<svg width="101" height="101" viewBox="0 0 101 101" fill="none" xmlns="http://www.w3.org/2000/svg">
<g clip-path="url(#clip0_1_28256)">
<path d="M98.8927 6.71915L61.9619 33.4181L55.9019 37.8094C52.6916 40.1811 48.3096 40.1811 45.0993 37.8094L39.0393 33.4181L2.06445 6.763C4.12102 3.88697 7.44311 2.18486 10.9789 2.19598H90.0223C93.5321 2.19906 96.8289 3.88018 98.8927 6.71915Z" fill="#FFD54F"/>
<path d="M2.06408 6.76294L39.0389 33.4181L3.20588 69.2511C1.14828 67.1883 -0.00505018 64.3922 9.58786e-05 61.4785V13.1743C-0.00957871 10.8722 0.713133 8.62684 2.06408 6.76294Z" fill="#FFC107"/>
<path d="M101 13.1743V61.4787C101.005 64.3924 99.8516 67.1886 97.794 69.2513L61.9609 33.4183L98.8917 6.71912C100.263 8.59187 101.001 10.853 101 13.1743Z" fill="#FFC107"/>
<path d="M65.8694 81.2393C62.9536 81.2393 61.4781 79.0436 61.4781 74.6523C61.55 68.5168 56.6345 63.485 50.4989 63.4131C44.3634 63.3413 39.3316 68.2568 39.2597 74.3924C39.1879 80.5279 44.1034 85.5597 50.2389 85.6316C53.5273 85.6701 56.6637 84.2497 58.8038 81.7531C60.2618 84.2516 62.9787 85.7425 65.8694 85.6305C74.652 85.6305 74.652 77.3662 74.652 74.6523C74.6522 61.3136 63.8391 50.5 50.5004 50.4996C37.1616 50.4992 26.3481 61.3125 26.3477 74.6515C26.3475 87.9903 37.1605 98.8038 50.4993 98.8042C56.7662 98.8044 62.7879 96.3685 67.2921 92.0114C68.1641 91.1625 68.1826 89.7678 67.3339 88.8958C66.485 88.0239 65.0903 88.0053 64.2183 88.854C56.3632 96.4305 43.8533 96.2044 36.2769 88.3493C28.7004 80.4941 28.9264 67.9843 36.7816 60.4079C44.6367 52.8314 57.1466 53.0574 64.723 60.9126C68.2808 64.6013 70.2664 69.5279 70.2608 74.6525C70.2608 79.5751 69.1542 81.2393 65.8694 81.2393ZM50.5 81.2393C46.8621 81.2393 43.913 78.2902 43.913 74.6523C43.913 71.0145 46.8621 68.0654 50.5 68.0654C54.1378 68.0654 57.0869 71.0145 57.0869 74.6523C57.0869 78.2902 54.1378 81.2393 50.5 81.2393Z" fill="#455A64"/>
<path d="M61.9607 33.4181L55.9007 37.8093C52.6904 40.181 48.3084 40.181 45.0981 37.8093L39.0381 33.4181L3.20508 69.2511C5.26782 71.3087 8.06398 72.462 10.9777 72.4567H22.0656C23.2535 56.7544 36.9455 44.9881 52.648 46.176C66.6986 47.239 77.8657 58.4061 78.9287 72.4567H90.0211C92.9348 72.4618 95.731 71.3087 97.7937 69.2511L61.9607 33.4181Z" fill="#FFA000"/>
</g>
<defs>
<clipPath id="clip0_1_28256">
<rect width="101" height="101" fill="white"/>
</clipPath>
</defs>
</svg>
