<svg width="24" height="24" viewBox="0 0 24 24" fill="none" xmlns="http://www.w3.org/2000/svg">
<g clip-path="url(#clip0_1_15203)">
<path d="M19.0303 2.94444H19.0282H17.0569V2.1731C17.0569 1.92927 16.9188 1.75699 16.7491 1.65521C16.5853 1.55691 16.383 1.51601 16.1998 1.51601H14.6527C14.1908 0.370784 13.1421 -0.196937 11.9754 -0.198148C10.8071 -0.240506 9.74084 0.446758 9.29236 1.51601H7.77193C7.58858 1.51601 7.39108 1.55703 7.23245 1.65797C7.06648 1.76359 6.94341 1.93697 6.94341 2.1731V2.94444H4.9721V2.94443L4.96996 2.94445C3.5773 2.95931 2.43795 4.05793 2.37249 5.44913L2.37227 5.44912V5.45853V21.8287C2.37227 23.2213 3.63142 24.1999 4.9721 24.1999H19.0282C20.3688 24.1999 21.628 23.2213 21.628 21.8287V5.45858H21.6282L21.6278 5.44918C21.5623 4.05794 20.423 2.95931 19.0303 2.94444ZM15.5142 3.05878V4.94432H8.48612V3.05878H9.85745H9.8696L9.88167 3.05731C10.2414 3.01342 10.5307 2.74093 10.5962 2.3849C10.7461 1.74116 11.3106 1.27897 11.9712 1.25902C12.6246 1.28139 13.1796 1.74464 13.3182 2.38378C13.387 2.75314 13.6959 3.03012 14.0708 3.05822L14.0782 3.05878H14.0857H15.5142ZM4.97401 4.48727H6.94335V5.74431V5.75371L6.94423 5.76308C6.98431 6.18806 7.35093 6.50642 7.77673 6.48715H16.1947C16.6233 6.50761 16.9971 6.19716 17.055 5.77125L17.0569 5.75784V5.74431V4.48721H19.0262C19.5771 4.49818 20.0321 4.92005 20.0852 5.46779V21.8287V21.8377C20.0823 22.0744 19.9645 22.2731 19.7716 22.4193C19.5736 22.5693 19.3027 22.6572 19.0282 22.6572H4.9721C4.6976 22.6572 4.42664 22.5693 4.22864 22.4193C4.03333 22.2713 3.91504 22.0693 3.91504 21.8287V5.46785C3.96811 4.92008 4.42307 4.49818 4.97401 4.48727Z" fill="#A39E9E" stroke="#A39E9E" stroke-width="0.4"/>
<path d="M7.17782 14.2046L6.54501 13.5483C6.25561 13.2439 5.77577 13.227 5.46564 13.5104L5.46533 13.51L5.45587 13.5199C5.1608 13.8291 5.1608 14.3155 5.45587 14.6246L5.45586 14.6246L5.45743 14.6262L6.6259 15.8232C6.76618 15.9782 6.96736 16.064 7.17643 16.0578C7.37796 16.0545 7.57015 15.9724 7.71188 15.8292L9.9367 13.7185C10.2375 13.4412 10.2575 12.9727 9.98113 12.6709C9.96794 12.6563 9.95434 12.6425 9.9405 12.6296C9.65069 12.3296 9.17403 12.3141 8.86539 12.5962L8.86536 12.5962L8.86233 12.5991L7.17782 14.2046Z" fill="#A39E9E" stroke="#A39E9E" stroke-width="0.4"/>
<path d="M17.9997 13.801H11.4288C11.0028 13.801 10.6574 14.1463 10.6574 14.5724C10.6574 14.9984 11.0028 15.3437 11.4288 15.3437H17.9997C18.4257 15.3437 18.7711 14.9984 18.7711 14.5724C18.7711 14.1463 18.4257 13.801 17.9997 13.801Z" fill="#A39E9E" stroke="#A39E9E" stroke-width="0.4"/>
<path d="M8.86539 8.0249L8.86536 8.02487L8.86233 8.02776L7.17782 9.63328L6.54501 8.977C6.25563 8.67265 5.77578 8.65565 5.46563 8.9391L5.46531 8.93876L5.45587 8.94864C5.1608 9.25779 5.1608 9.74419 5.45587 10.0533L5.45586 10.0533L5.45743 10.0549L6.6259 11.2519C6.76618 11.4069 6.96736 11.4927 7.17643 11.4865C7.37796 11.4832 7.57015 11.4011 7.71188 11.2579L9.93671 9.1472C10.2375 8.86992 10.2575 8.40141 9.98113 8.09958C9.96794 8.08497 9.95433 8.07125 9.9405 8.05834C9.65069 7.75829 9.17403 7.74285 8.86539 8.0249Z" fill="#A39E9E" stroke="#A39E9E" stroke-width="0.4"/>
<path d="M17.9997 9.22969H11.4288C11.0028 9.22969 10.6574 9.57504 10.6574 10.0011C10.6574 10.4271 11.0028 10.7725 11.4288 10.7725H17.9997C18.4257 10.7725 18.7711 10.4271 18.7711 10.0011C18.7711 9.57504 18.4257 9.22969 17.9997 9.22969Z" fill="#A39E9E" stroke="#A39E9E" stroke-width="0.4"/>
<path d="M9.98097 17.2415C9.96786 17.227 9.95436 17.2134 9.94066 17.2006C9.65085 16.9003 9.17407 16.8849 8.86541 17.167L8.86538 17.1669L8.86233 17.1698L7.17782 18.7753L6.54501 18.1191C6.25561 17.8147 5.77577 17.7978 5.46564 18.0811L5.46533 18.0808L5.45587 18.0907C5.1608 18.3999 5.1608 18.8863 5.45587 19.1954L5.45586 19.1954L5.45743 19.197L6.6259 20.394C6.76618 20.549 6.96736 20.6348 7.17643 20.6286C7.37796 20.6253 7.57015 20.5432 7.71188 20.4L9.9367 18.2893C10.2376 18.0119 10.2575 17.5433 9.98097 17.2415ZM9.98097 17.2415C9.98113 17.2416 9.98129 17.2418 9.98145 17.242L9.83314 17.3762L9.98049 17.2409C9.98065 17.2411 9.98081 17.2413 9.98097 17.2415Z" fill="#A39E9E" stroke="#A39E9E" stroke-width="0.4"/>
<path d="M17.9997 18.3718H11.4288C11.0028 18.3718 10.6574 18.7171 10.6574 19.1432C10.6574 19.5692 11.0028 19.9145 11.4288 19.9145H17.9997C18.4257 19.9145 18.7711 19.5692 18.7711 19.1432C18.7711 18.7171 18.4257 18.3718 17.9997 18.3718Z" fill="#A39E9E" stroke="#A39E9E" stroke-width="0.4"/>
</g>
<defs>
<clipPath id="clip0_1_15203">
<rect width="24" height="24" fill="white"/>
</clipPath>
</defs>
</svg>
