<svg width="40" height="40" viewBox="0 0 40 40" fill="none" xmlns="http://www.w3.org/2000/svg">
<path d="M37.8723 10.5048L20.3723 1.7548C20.1377 1.63772 19.861 1.63772 19.6269 1.7548L2.12685 10.5048C1.84435 10.6461 1.66602 10.9344 1.66602 11.2502V28.7502C1.66602 29.0661 1.84435 29.3544 2.12643 29.4956L19.6264 38.2456C19.7439 38.3044 19.8714 38.3336 19.9993 38.3336C20.1273 38.3336 20.2548 38.3044 20.3723 38.2456L37.8723 29.4956C38.1544 29.3544 38.3327 29.0661 38.3327 28.7502V11.2502C38.3327 10.9344 38.1544 10.6461 37.8723 10.5048ZM19.9993 3.43189L35.636 11.2502L32.291 12.9227L16.6548 5.10439L19.9993 3.43189ZM25.6243 16.2561L9.98768 8.43772L14.791 6.03605L30.4277 13.8544L25.6243 16.2561ZM26.2493 17.8069L31.2493 15.3069V21.5056L29.6502 20.3636C29.4689 20.234 29.2423 20.1827 29.0227 20.2206C28.8031 20.2594 28.6077 20.384 28.4806 20.5673L26.2493 23.7911V17.8069ZM8.12435 9.36939L23.7606 17.1877L19.9993 19.0686L4.36268 11.2502L8.12435 9.36939ZM3.33268 12.5986L19.166 20.5152V36.1515L3.33268 28.2348V12.5986ZM20.8327 36.1519V20.5152L24.5827 18.6402V26.4586C24.5827 26.8231 24.8193 27.1452 25.1673 27.254C25.2498 27.2798 25.3331 27.2919 25.416 27.2919C25.6844 27.2919 25.9427 27.1619 26.1014 26.9331L29.3702 22.2119L31.5989 23.8036C31.8531 23.9848 32.1873 24.0094 32.4643 23.8661C32.7414 23.7236 32.916 23.4373 32.916 23.1252V14.4736L36.666 12.5986V28.2348L20.8327 36.1519Z" fill="black"/>
</svg>
