<svg width="40" height="40" viewBox="0 0 40 40" fill="none" xmlns="http://www.w3.org/2000/svg">
<g clip-path="url(#clip0_1_14970)">
<path d="M28.9277 17.4019L34.0415 18.5706" stroke="#007BFF" stroke-width="1.2" stroke-miterlimit="10" stroke-linecap="round" stroke-linejoin="round"/>
<path d="M5.95703 18.5709L11.0609 17.4043" stroke="#007BFF" stroke-width="1.2" stroke-miterlimit="10" stroke-linecap="round" stroke-linejoin="round"/>
<path d="M14.1992 12.9975L15.6401 12.7881C15.9657 12.7408 16.2473 12.5363 16.3929 12.2411L19.1027 6.75069C19.4695 6.00758 20.5291 6.00758 20.896 6.75069L23.6057 12.2412C23.7513 12.5363 24.0328 12.7408 24.3585 12.7882L30.4176 13.6686C31.2377 13.7878 31.5652 14.7956 30.9717 15.3741L26.5873 19.6479C26.4011 19.8293 26.2949 20.074 26.2859 20.3286" stroke="#007BFF" stroke-width="1.2" stroke-miterlimit="10" stroke-linecap="round" stroke-linejoin="round"/>
<path d="M13.7137 20.3364C13.7066 20.079 13.6001 19.8313 13.4121 19.648L9.02765 15.3742C8.43423 14.7958 8.76166 13.788 9.58176 13.6688L11.5328 13.3853" stroke="#007BFF" stroke-width="1.2" stroke-miterlimit="10" stroke-linecap="round" stroke-linejoin="round"/>
<path d="M10.0438 37.1587L6.58063 36.3671C6.21576 36.2837 5.95703 35.9592 5.95703 35.5848V24.9165" stroke="#007BFF" stroke-width="1.2" stroke-miterlimit="10" stroke-linecap="round" stroke-linejoin="round"/>
<path d="M34.0416 24.9414V35.5848C34.0416 35.9591 33.7829 36.2837 33.418 36.3671L20.1733 39.3945C20.0586 39.4207 19.9396 39.4207 19.825 39.3945L12.7051 37.7671" stroke="#007BFF" stroke-width="1.2" stroke-miterlimit="10" stroke-linecap="round" stroke-linejoin="round"/>
<path d="M20 32.7861V39.317" stroke="#007BFF" stroke-width="1.2" stroke-miterlimit="10" stroke-linecap="round" stroke-linejoin="round"/>
<path d="M20 21.7808V30.0504" stroke="#007BFF" stroke-width="1.2" stroke-miterlimit="10" stroke-linecap="round" stroke-linejoin="round"/>
<path d="M30.7197 25.6591L39.2176 23.7465L34.042 18.5708L19.9994 21.7805L5.9569 18.5708L0.78125 23.7465L14.8639 26.9161L19.9994 21.7805" stroke="#007BFF" stroke-width="1.2" stroke-miterlimit="10" stroke-linecap="round" stroke-linejoin="round"/>
<path d="M20 21.7808L25.1356 26.9163L28.0657 26.2568" stroke="#007BFF" stroke-width="1.2" stroke-miterlimit="10" stroke-linecap="round" stroke-linejoin="round"/>
<path d="M20 0.586426V2.99373" stroke="#007BFF" stroke-width="1.2" stroke-miterlimit="10" stroke-linecap="round" stroke-linejoin="round"/>
<path d="M20 0.586426V2.99373" stroke="#007BFF" stroke-width="1.2" stroke-miterlimit="10" stroke-linecap="round" stroke-linejoin="round"/>
<path d="M26.4907 5.68262L24.9434 7.52675" stroke="#007BFF" stroke-width="1.2" stroke-miterlimit="10" stroke-linecap="round" stroke-linejoin="round"/>
<path d="M26.4907 5.68262L24.9434 7.52675" stroke="#007BFF" stroke-width="1.2" stroke-miterlimit="10" stroke-linecap="round" stroke-linejoin="round"/>
<path d="M33.6038 8.33838L31.7598 9.8858" stroke="#007BFF" stroke-width="1.2" stroke-miterlimit="10" stroke-linecap="round" stroke-linejoin="round"/>
<path d="M33.6038 8.33838L31.7598 9.8858" stroke="#007BFF" stroke-width="1.2" stroke-miterlimit="10" stroke-linecap="round" stroke-linejoin="round"/>
<path d="M13.5078 5.68262L15.0552 7.52675" stroke="#007BFF" stroke-width="1.2" stroke-miterlimit="10" stroke-linecap="round" stroke-linejoin="round"/>
<path d="M13.5078 5.68262L15.0552 7.52675" stroke="#007BFF" stroke-width="1.2" stroke-miterlimit="10" stroke-linecap="round" stroke-linejoin="round"/>
<path d="M6.39453 8.33838L8.23859 9.8858" stroke="#007BFF" stroke-width="1.2" stroke-miterlimit="10" stroke-linecap="round" stroke-linejoin="round"/>
<path d="M6.39453 8.33838L8.23859 9.8858" stroke="#007BFF" stroke-width="1.2" stroke-miterlimit="10" stroke-linecap="round" stroke-linejoin="round"/>
</g>
<defs>
<clipPath id="clip0_1_14970">
<rect width="40" height="40" fill="white"/>
</clipPath>
</defs>
</svg>
