<svg width="35" height="35" viewBox="0 0 35 35" fill="none" xmlns="http://www.w3.org/2000/svg">
<path fill-rule="evenodd" clip-rule="evenodd" d="M18.5501 14.2595H25.7196L25.4857 16.9063H18.7841L18.5501 14.2595ZM24.9519 22.4101L25.3621 18.303H18.9076L19.205 22.4101H24.9519ZM31.9675 18.303H26.7676L26.3575 22.4101H28.304C28.9593 22.4132 29.5991 22.2103 30.1329 21.83C30.6666 21.4497 31.0674 20.9114 31.2785 20.2909L31.9676 18.3034L31.9675 18.303ZM33.3725 14.2595L32.4534 16.9063H26.8911L27.125 14.2595H33.3725ZM27.5825 8.75584H34.3027C34.3799 8.75687 34.4563 8.77006 34.5293 8.79494C34.6161 8.8249 34.6961 8.87166 34.7647 8.93254C34.8334 8.99342 34.8894 9.06723 34.9295 9.14975C34.9697 9.23228 34.9931 9.3219 34.9986 9.4135C35.0041 9.5051 34.9915 9.59689 34.9615 9.68361L33.8584 12.8582H27.248L27.5821 8.75604L27.5825 8.75584ZM18.0562 8.75584H26.1773L25.8437 12.8579H18.4266L18.056 8.75584H18.0562ZM9.65638 12.8582L7.04102 5.32762C6.92601 4.98081 6.70341 4.6797 6.40557 4.46806C6.10772 4.25641 5.75015 4.14526 5.3848 4.15074H0.700068C0.608359 4.15074 0.517547 4.13268 0.432818 4.09758C0.348089 4.06249 0.271102 4.01105 0.206254 3.9462C0.141405 3.88135 0.0899643 3.80436 0.0548684 3.71963C0.0197726 3.6349 0.00170898 3.54409 0.00170898 3.45238C0.00170898 3.36067 0.0197726 3.26986 0.0548684 3.18513C0.0899643 3.1004 0.141405 3.02342 0.206254 2.95857C0.271102 2.89372 0.348089 2.84228 0.432818 2.80718C0.517547 2.77209 0.608359 2.75402 0.700068 2.75402H5.3848C6.0407 2.74833 6.68158 2.95029 7.21571 3.331C7.74985 3.71171 8.14984 4.25164 8.35844 4.87351L9.71195 8.76561C9.75667 8.7598 9.80167 8.75654 9.84676 8.75584H16.651L17.0215 12.8582H9.65638ZM11.0614 16.9065L10.1428 14.2595H17.1452L17.3786 16.9063L11.0614 16.9065ZM18.2816 27.3326C18.8515 27.3311 19.4043 27.5273 19.8457 27.8878C20.2872 28.2483 20.5899 28.7507 20.7023 29.3095C20.8147 29.8682 20.7299 30.4486 20.4622 30.9518C20.1945 31.455 19.7606 31.8497 19.2344 32.0687C18.7083 32.2878 18.1224 32.3175 17.5768 32.1529C17.0311 31.9883 16.5595 31.6395 16.2422 31.166C15.925 30.6926 15.7818 30.1237 15.837 29.5565C15.8923 28.9892 16.1426 28.4587 16.5452 28.0553C16.7729 27.8266 17.0435 27.645 17.3414 27.521C17.6393 27.397 17.9588 27.333 18.2816 27.3326ZM28.5994 27.3423C29.1641 27.3442 29.7107 27.5418 30.1461 27.9014C30.5815 28.261 30.8788 28.7604 30.9874 29.3146C31.096 29.8687 31.0091 30.4434 30.7417 30.9407C30.4742 31.4381 30.0426 31.8273 29.5204 32.0422C28.9982 32.2571 28.4176 32.2844 27.8776 32.1193C27.3375 31.9543 26.8713 31.6072 26.5585 31.1371C26.2456 30.667 26.1053 30.103 26.1615 29.5411C26.2177 28.9792 26.4669 28.4541 26.8667 28.0553C27.3272 27.5977 27.9502 27.3413 28.5994 27.3423ZM16.0181 22.4101C15.9917 22.4149 15.9639 22.4198 15.9356 22.4247C15.5559 22.4839 15.2095 22.676 14.9581 22.9667C14.7594 23.2002 14.6316 23.4856 14.5897 23.7892C14.5478 24.0929 14.5934 24.4022 14.7213 24.6807C14.8492 24.9593 15.054 25.1956 15.3116 25.3617C15.5692 25.5278 15.8689 25.6169 16.1755 25.6185H31.7165C31.9017 25.6185 32.0793 25.692 32.2103 25.823C32.3413 25.954 32.4149 26.1316 32.4149 26.3168C32.4149 26.502 32.3413 26.6797 32.2103 26.8106C32.0793 26.9416 31.9017 27.0152 31.7165 27.0152H16.1753C15.6061 27.0161 15.0483 26.855 14.5673 26.5507C14.0862 26.2464 13.7017 25.8114 13.4586 25.2967C13.2156 24.7819 13.1241 24.2086 13.1948 23.6438C13.2655 23.079 13.4955 22.5459 13.8579 22.107C13.6907 22.029 13.531 21.9359 13.3809 21.8286C12.8478 21.4486 12.4476 20.9105 12.2371 20.2905L11.5481 18.303H17.5022L17.8 22.41L16.0181 22.4101Z" fill="url(#paint0_linear_1_12366)"/>
<defs>
<linearGradient id="paint0_linear_1_12366" x1="9.81634" y1="21.3459" x2="30.6346" y2="5.71282" gradientUnits="userSpaceOnUse">
<stop stop-color="#3DABEF"/>
<stop offset="0.0759998" stop-color="#3B8DF0"/>
<stop offset="1" stop-color="#007BFF"/>
</linearGradient>
</defs>
</svg>
