<svg width="40" height="40" viewBox="0 0 40 40" fill="none" xmlns="http://www.w3.org/2000/svg">
<path d="M11.4368 26.0457L11.4368 26.0459C11.5385 26.5524 11.9826 26.9167 12.4986 26.9167H34.1653C34.6815 26.9167 35.1248 26.5524 35.2285 26.0469L35.2287 26.0457L38.5621 9.37907L38.5622 9.37843C38.6249 9.06033 38.5427 8.73113 38.337 8.47997C38.131 8.22843 37.8232 8.08337 37.4986 8.08337H9.16525C8.84061 8.08337 8.53284 8.22843 8.32683 8.47997L8.32683 8.47997L8.32602 8.48098C8.12369 8.73065 8.03837 9.05946 8.10353 9.37952C8.10356 9.37969 8.1036 9.37986 8.10363 9.38003L11.4368 26.0457ZM36.177 10.25L33.277 24.75H13.3869L10.4869 10.25H36.177Z" fill="white" stroke="white" stroke-width="0.5"/>
<path d="M11.4396 26.0461L11.4395 26.0457L7.30784 5.38909C7.30783 5.38907 7.30783 5.38905 7.30783 5.38903C7.09787 4.34092 6.16887 3.58006 5.10143 3.58C5.10139 3.58 5.10135 3.58 5.1013 3.58L2.50162 3.58333L2.5013 3.58333C1.90323 3.58333 1.41797 3.09807 1.41797 2.5C1.41797 1.90231 1.90115 1.41675 2.50113 1.41666L2.50098 1.41666L2.5013 1.66666V1.41666L11.4396 26.0461ZM11.4396 26.0461C11.5435 26.5616 11.9962 26.9167 12.5013 26.9167C12.5697 26.9167 12.6417 26.9103 12.7151 26.8949L11.4396 26.0461Z" fill="white" stroke="white" stroke-width="0.5"/>
<path d="M9.16797 30.25H37.5013C38.0994 30.25 38.5846 29.7647 38.5846 29.1667C38.5846 28.5686 38.0994 28.0833 37.5013 28.0833H9.16797C8.84604 28.0833 8.58464 27.8219 8.58464 27.5C8.58464 27.1781 8.84604 26.9167 9.16797 26.9167H12.5013C13.0994 26.9167 13.5846 26.4314 13.5846 25.8333C13.5846 25.2353 13.0994 24.75 12.5013 24.75H9.16797C7.65156 24.75 6.41797 25.9836 6.41797 27.5C6.41797 29.0164 7.65156 30.25 9.16797 30.25Z" fill="white" stroke="white" stroke-width="0.5"/>
<path d="M15.0013 38.3333C13.163 38.3333 11.668 36.8383 11.668 35C11.668 33.1616 13.163 31.6666 15.0013 31.6666C16.8396 31.6666 18.3346 33.1616 18.3346 35C18.3346 36.8383 16.8396 38.3333 15.0013 38.3333ZM15.0013 33.3333C14.083 33.3333 13.3346 34.0816 13.3346 35C13.3346 35.9183 14.083 36.6666 15.0013 36.6666C15.9196 36.6666 16.668 35.9183 16.668 35C16.668 34.0816 15.9196 33.3333 15.0013 33.3333Z" fill="white"/>
<path d="M30.0013 38.3333C28.163 38.3333 26.668 36.8383 26.668 35C26.668 33.1616 28.163 31.6666 30.0013 31.6666C31.8396 31.6666 33.3346 33.1616 33.3346 35C33.3346 36.8383 31.8396 38.3333 30.0013 38.3333ZM30.0013 33.3333C29.083 33.3333 28.3346 34.0816 28.3346 35C28.3346 35.9183 29.083 36.6666 30.0013 36.6666C30.9196 36.6666 31.668 35.9183 31.668 35C31.668 34.0816 30.9196 33.3333 30.0013 33.3333Z" fill="white"/>
</svg>
