<svg width="101" height="101" viewBox="0 0 101 101" fill="none" xmlns="http://www.w3.org/2000/svg">
<g clip-path="url(#clip0_1_29039)">
<path d="M50.5 101C78.3904 101 101 78.3904 101 50.5C101 22.6096 78.3904 0 50.5 0C22.6096 0 0 22.6096 0 50.5C0 78.3904 22.6096 101 50.5 101Z" fill="#3DB39E"/>
<path d="M98.5199 34.8672C97.0897 30.4707 95.0778 26.3398 92.568 22.5654L48.3633 68.6073L48.4522 73.731L50.5388 73.7179L98.5199 34.8672Z" fill="#37A18E"/>
<path d="M101.077 19.8788L92.0715 10.9817C90.8424 9.76668 88.8486 9.76668 87.6194 10.9817L49.1253 50.6323L32.525 34.2299C31.2938 33.0149 29.3021 33.0149 28.0719 34.2299L20.0898 42.117C18.8607 43.331 18.8607 45.3005 20.0898 46.5145L46.7326 72.8361C47.4427 73.5381 48.4052 73.8209 49.3304 73.7118C50.2555 73.8199 51.218 73.5381 51.9281 72.8361L101.077 24.2773C102.306 23.0623 102.306 21.0938 101.077 19.8788Z" fill="#F8F8F8"/>
<path d="M51.929 72.8361L101.078 24.2773C102.307 23.0623 102.307 21.0938 101.078 19.8788L99.6081 18.4264L49.0505 68.1537L21.2068 41.013L20.0918 42.1159C18.8626 43.33 18.8626 45.2995 20.0918 46.5135L46.7336 72.8361C47.4436 73.538 48.4061 73.8209 49.3313 73.7118C50.2565 73.8209 51.219 73.5391 51.929 72.8361Z" fill="#EBEBEB"/>
</g>
<defs>
<clipPath id="clip0_1_29039">
<rect width="101" height="101" fill="white"/>
</clipPath>
</defs>
</svg>
