<svg width="101" height="101" viewBox="0 0 101 101" fill="none" xmlns="http://www.w3.org/2000/svg">
<g clip-path="url(#clip0_1_28991)">
<path d="M50.5 101C78.3904 101 101 78.3904 101 50.5C101 22.6096 78.3904 0 50.5 0C22.6096 0 0 22.6096 0 50.5C0 78.3904 22.6096 101 50.5 101Z" fill="#E21B1B"/>
<path d="M100.661 56.2807L72.5763 28.1964L29.6387 72.7137L57.4389 100.514C80.1592 97.3893 98.052 79.1604 100.661 56.2807Z" fill="#C40606"/>
<path d="M69.9059 73.2913C68.8959 73.2913 67.8875 72.9062 67.1158 72.1361L28.881 33.8997C27.3392 32.3579 27.3392 29.8613 28.881 28.3211C30.4228 26.7808 32.9194 26.7792 34.4597 28.3211L72.696 66.5575C74.2379 68.0993 74.2379 70.5959 72.696 72.1361C71.9243 72.9062 70.9159 73.2913 69.9059 73.2913Z" fill="white"/>
<path d="M31.6692 73.2913C30.6592 73.2913 29.6507 72.9062 28.879 72.1361C27.3372 70.5943 27.3372 68.0977 28.879 66.5574L67.1154 28.321C68.6572 26.7792 71.1538 26.7792 72.6941 28.321C74.2343 29.8629 74.2359 32.3595 72.6941 33.8997L34.4593 72.1361C33.6892 72.9062 32.6792 73.2913 31.6692 73.2913Z" fill="white"/>
</g>
<defs>
<clipPath id="clip0_1_28991">
<rect width="101" height="101" fill="white"/>
</clipPath>
</defs>
</svg>
